<svg width="771" height="309" viewBox="0 0 771 309" fill="none" xmlns="http://www.w3.org/2000/svg">
<rect width="771" height="309" fill="#050505"/>
<path d="M67.3555 199V106.578H97.5703C107.6 106.578 115.132 108.652 120.168 112.799C125.246 116.946 127.785 123.082 127.785 131.207C127.785 135.523 126.558 139.353 124.104 142.696C121.649 145.997 118.306 148.557 114.074 150.377C119.068 151.773 123.003 154.439 125.881 158.375C128.801 162.268 130.261 166.923 130.261 172.34C130.261 180.634 127.574 187.151 122.199 191.891C116.825 196.63 109.229 199 99.4111 199H67.3555ZM79.543 155.772V189.034H99.665C105.336 189.034 109.8 187.574 113.059 184.654C116.359 181.692 118.01 177.63 118.01 172.467C118.01 161.337 111.958 155.772 99.8555 155.772H79.543ZM79.543 145.997H97.9512C103.283 145.997 107.536 144.664 110.71 141.998C113.926 139.332 115.534 135.714 115.534 131.144C115.534 126.065 114.053 122.384 111.091 120.099C108.129 117.771 103.622 116.607 97.5703 116.607H79.543V145.997ZM175.012 200.27C165.702 200.27 158.127 197.223 152.287 191.129C146.447 184.993 143.527 176.804 143.527 166.563V164.405C143.527 157.592 144.818 151.52 147.399 146.188C150.023 140.813 153.662 136.624 158.317 133.619C163.015 130.572 168.093 129.049 173.552 129.049C182.481 129.049 189.421 131.99 194.372 137.872C199.323 143.754 201.799 152.175 201.799 163.136V168.023H155.271C155.44 174.794 157.408 180.274 161.174 184.464C164.982 188.611 169.807 190.685 175.646 190.685C179.794 190.685 183.306 189.838 186.184 188.146C189.061 186.453 191.579 184.21 193.737 181.417L200.91 187.003C195.155 195.847 186.522 200.27 175.012 200.27ZM173.552 138.697C168.812 138.697 164.834 140.432 161.618 143.902C158.402 147.33 156.413 152.154 155.651 158.375H190.056V157.486C189.717 151.52 188.109 146.907 185.231 143.648C182.354 140.348 178.461 138.697 173.552 138.697ZM228.205 199H216.462V101.5H228.205V199ZM259.816 199H248.073V101.5H259.816V199ZM318.659 180.782C318.659 177.608 317.453 175.154 315.041 173.419C312.671 171.642 308.503 170.118 302.536 168.849C296.612 167.579 291.893 166.056 288.381 164.278C284.911 162.501 282.329 160.385 280.637 157.931C278.986 155.476 278.161 152.556 278.161 149.171C278.161 143.543 280.531 138.782 285.271 134.889C290.052 130.995 296.146 129.049 303.552 129.049C311.338 129.049 317.644 131.059 322.468 135.079C327.334 139.099 329.768 144.241 329.768 150.504H317.961C317.961 147.288 316.586 144.516 313.835 142.188C311.127 139.861 307.699 138.697 303.552 138.697C299.278 138.697 295.935 139.628 293.522 141.49C291.11 143.352 289.904 145.785 289.904 148.79C289.904 151.625 291.026 153.762 293.269 155.201C295.511 156.64 299.553 158.015 305.393 159.327C311.275 160.639 316.035 162.205 319.675 164.024C323.314 165.844 326.001 168.045 327.736 170.626C329.514 173.165 330.402 176.275 330.402 179.957C330.402 186.093 327.948 191.023 323.039 194.747C318.13 198.429 311.761 200.27 303.933 200.27C298.431 200.27 293.565 199.296 289.333 197.35C285.101 195.403 281.779 192.695 279.367 189.225C276.997 185.712 275.812 181.925 275.812 177.862H287.556C287.767 181.798 289.333 184.929 292.253 187.257C295.215 189.542 299.108 190.685 303.933 190.685C308.376 190.685 311.931 189.796 314.597 188.019C317.305 186.199 318.659 183.787 318.659 180.782ZM450.817 199H438.566L392.038 127.779V199H379.787V106.578H392.038L438.693 178.116V106.578H450.817V199ZM467.512 164.024C467.512 157.296 468.824 151.244 471.447 145.87C474.113 140.496 477.795 136.349 482.492 133.429C487.232 130.509 492.627 129.049 498.679 129.049C508.031 129.049 515.585 132.286 521.34 138.761C527.137 145.235 530.036 153.847 530.036 164.596V165.421C530.036 172.107 528.745 178.116 526.164 183.448C523.625 188.738 519.965 192.864 515.183 195.826C510.443 198.788 504.984 200.27 498.806 200.27C489.496 200.27 481.942 197.032 476.145 190.558C470.389 184.083 467.512 175.514 467.512 164.85V164.024ZM479.318 165.421C479.318 173.038 481.075 179.153 484.587 183.766C488.142 188.378 492.881 190.685 498.806 190.685C504.772 190.685 509.512 188.357 513.024 183.702C516.537 179.005 518.293 172.446 518.293 164.024C518.293 156.492 516.494 150.398 512.897 145.743C509.343 141.046 504.603 138.697 498.679 138.697C492.881 138.697 488.205 141.004 484.65 145.616C481.096 150.229 479.318 156.83 479.318 165.421ZM560.695 113.688V130.318H573.518V139.396H560.695V181.988C560.695 184.739 561.267 186.812 562.409 188.209C563.552 189.563 565.498 190.24 568.249 190.24C569.603 190.24 571.465 189.986 573.835 189.479V199C570.746 199.846 567.741 200.27 564.821 200.27C559.574 200.27 555.617 198.683 552.951 195.509C550.285 192.335 548.952 187.828 548.952 181.988V139.396H536.447V130.318H548.952V113.688H560.695ZM615.793 200.27C606.483 200.27 598.908 197.223 593.068 191.129C587.229 184.993 584.309 176.804 584.309 166.563V164.405C584.309 157.592 585.599 151.52 588.181 146.188C590.804 140.813 594.444 136.624 599.099 133.619C603.796 130.572 608.874 129.049 614.333 129.049C623.262 129.049 630.202 131.99 635.153 137.872C640.104 143.754 642.58 152.175 642.58 163.136V168.023H596.052C596.221 174.794 598.189 180.274 601.955 184.464C605.764 188.611 610.588 190.685 616.428 190.685C620.575 190.685 624.087 189.838 626.965 188.146C629.842 186.453 632.36 184.21 634.519 181.417L641.691 187.003C635.936 195.847 627.303 200.27 615.793 200.27ZM614.333 138.697C609.593 138.697 605.616 140.432 602.399 143.902C599.183 147.33 597.194 152.154 596.433 158.375H630.837V157.486C630.498 151.52 628.89 146.907 626.013 143.648C623.135 140.348 619.242 138.697 614.333 138.697ZM696.218 180.782C696.218 177.608 695.012 175.154 692.6 173.419C690.23 171.642 686.062 170.118 680.095 168.849C674.17 167.579 669.452 166.056 665.939 164.278C662.469 162.501 659.888 160.385 658.195 157.931C656.545 155.476 655.72 152.556 655.72 149.171C655.72 143.543 658.09 138.782 662.829 134.889C667.611 130.995 673.705 129.049 681.11 129.049C688.897 129.049 695.202 131.059 700.026 135.079C704.893 139.099 707.326 144.241 707.326 150.504H695.52C695.52 147.288 694.144 144.516 691.394 142.188C688.685 139.861 685.257 138.697 681.11 138.697C676.836 138.697 673.493 139.628 671.081 141.49C668.669 143.352 667.463 145.785 667.463 148.79C667.463 151.625 668.584 153.762 670.827 155.201C673.07 156.64 677.111 158.015 682.951 159.327C688.833 160.639 693.594 162.205 697.233 164.024C700.873 165.844 703.56 168.045 705.295 170.626C707.072 173.165 707.961 176.275 707.961 179.957C707.961 186.093 705.507 191.023 700.598 194.747C695.689 198.429 689.32 200.27 681.491 200.27C675.99 200.27 671.123 199.296 666.892 197.35C662.66 195.403 659.338 192.695 656.926 189.225C654.556 185.712 653.371 181.925 653.371 177.862H665.114C665.326 181.798 666.892 184.929 669.812 187.257C672.774 189.542 676.667 190.685 681.491 190.685C685.935 190.685 689.489 189.796 692.155 188.019C694.864 186.199 696.218 183.787 696.218 180.782Z" fill="white"/>
</svg>
